<svg width="20" height="19" viewBox="0 0 20 19" fill="none" xmlns="http://www.w3.org/2000/svg">
<path fill-rule="evenodd" clip-rule="evenodd" d="M10 0C15.525 0 20 4.35852 20 9.73975C19.9992 13.9256 17.2583 17.6431 13.1875 18.9814C12.6875 19.0788 12.5 18.7748 12.5 18.5187C12.5 18.1899 12.5125 17.1433 12.5125 15.8405C12.5125 14.9277 12.2 14.3428 11.8375 14.0388C14.0625 13.7951 16.4 12.9673 16.4 9.22921C16.4 8.15776 16.0125 7.29283 15.375 6.6113C15.475 6.3676 15.825 5.36966 15.275 4.02973C15.275 4.02973 14.4375 3.76207 12.525 5.02848C11.7103 4.80846 10.8694 4.69788 10.025 4.6997C9.175 4.6997 8.325 4.80957 7.525 5.02848C5.6125 3.77446 4.775 4.02973 4.775 4.02973C4.225 5.36966 4.575 6.3676 4.675 6.6113C4.0375 7.29283 3.65 8.17015 3.65 9.22921C3.65 12.9549 5.975 13.7951 8.2 14.0388C7.9125 14.2817 7.65 14.7079 7.5625 15.3415C6.9875 15.5976 5.55 16.0107 4.65 14.5377C4.4625 14.2453 3.9 13.5274 3.1125 13.539C2.275 13.5514 2.775 14.0016 3.125 14.1842C3.55 14.4155 4.0375 15.2804 4.15 15.5605C4.35 16.1082 5 17.1548 7.5125 16.7046C7.5125 17.5208 7.525 18.2874 7.525 18.5187C7.525 18.7748 7.3375 19.0673 6.8375 18.9814C2.7525 17.6571 -0.0024983 13.9339 1.70004e-06 9.74057C1.70004e-06 4.35852 4.475 0 10 0Z" fill="white"/>
</svg>
