<svg width="24" height="24" viewBox="0 0 24 24" fill="none" xmlns="http://www.w3.org/2000/svg">
<g clip-path="url(#clip0_222_18)">
<path d="M13.8453 17.2684L10.5833 20.5304C9.63619 21.4522 8.36428 21.964 7.04271 21.9551C5.72115 21.9463 4.45621 21.4174 3.52157 20.4831C2.58694 19.5487 2.05776 18.2839 2.04853 16.9624C2.0393 15.6408 2.55077 14.3687 3.47226 13.4214L6.73427 10.1564C6.92177 9.96878 7.02706 9.71434 7.02697 9.44907C7.02687 9.1838 6.92141 8.92943 6.73377 8.74192C6.54612 8.55441 6.29168 8.44913 6.02641 8.44922C5.76114 8.44931 5.50677 8.55478 5.31927 8.74242L2.05826 12.0074C0.740537 13.3258 0.00050793 15.1137 0.000976785 16.9777C0.00144564 18.8417 0.742374 20.6292 2.06077 21.9469C3.37916 23.2646 5.16702 24.0046 7.03103 24.0042C8.89505 24.0037 10.6825 23.2628 12.0003 21.9444L15.2623 18.6824C15.4444 18.4938 15.5452 18.2412 15.5429 17.979C15.5407 17.7168 15.4355 17.466 15.2501 17.2806C15.0647 17.0952 14.8139 16.99 14.5517 16.9877C14.2895 16.9855 14.0369 17.0862 13.8483 17.2684H13.8453Z" fill="white"/>
<path d="M21.944 2.06102C21.2933 1.40584 20.519 0.886303 19.666 0.532521C18.8131 0.178738 17.8984 -0.00225646 16.975 2.46408e-05V2.46408e-05C16.052 -0.00242709 15.1378 0.178103 14.2851 0.531176C13.4323 0.884249 12.658 1.40286 12.007 2.05702L8.73998 5.32003C8.55234 5.50753 8.44687 5.7619 8.44678 6.02717C8.44668 6.29244 8.55197 6.54688 8.73948 6.73453C8.92699 6.92217 9.18136 7.02763 9.44663 7.02773C9.7119 7.02782 9.96634 6.92253 10.154 6.73503L13.419 3.47303C13.8845 3.00467 14.4384 2.63333 15.0484 2.38048C15.6585 2.12764 16.3126 1.99833 16.973 2.00002V2.00002C17.9672 2.00035 18.9391 2.29546 19.7657 2.84802C20.5922 3.40059 21.2364 4.18582 21.6168 5.10445C21.9972 6.02307 22.0967 7.03385 21.9027 8.009C21.7087 8.98416 21.23 9.87991 20.527 10.583L17.265 13.845C17.0773 14.0327 16.9719 14.2872 16.9719 14.5525C16.9719 14.8179 17.0773 15.0724 17.265 15.26C17.4526 15.4477 17.7071 15.5531 17.9725 15.5531C18.2378 15.5531 18.4923 15.4477 18.68 15.26L21.942 12C23.258 10.6811 23.9973 8.89413 23.9977 7.03094C23.998 5.16775 23.2595 3.38046 21.944 2.06102V2.06102Z" fill="white"/>
<path d="M14.2931 8.29243L8.29308 14.2924C8.19757 14.3847 8.12139 14.495 8.06898 14.617C8.01657 14.739 7.98898 14.8702 7.98783 15.003C7.98668 15.1358 8.01198 15.2675 8.06226 15.3904C8.11254 15.5133 8.18679 15.6249 8.28069 15.7188C8.37458 15.8127 8.48623 15.887 8.60913 15.9372C8.73202 15.9875 8.8637 16.0128 8.99648 16.0117C9.12926 16.0105 9.26048 15.9829 9.38249 15.9305C9.50449 15.8781 9.61483 15.8019 9.70708 15.7064L15.7071 9.70643C15.8892 9.51783 15.99 9.26522 15.9878 9.00303C15.9855 8.74083 15.8803 8.49002 15.6949 8.30461C15.5095 8.1192 15.2587 8.01403 14.9965 8.01176C14.7343 8.00948 14.4817 8.11027 14.2931 8.29243Z" fill="white"/>
</g>
<defs>
<clipPath id="clip0_222_18">
<rect width="24" height="24" fill="white"/>
</clipPath>
</defs>
</svg>
