<svg width="20" height="20" viewBox="0 0 20 20" fill="none" xmlns="http://www.w3.org/2000/svg">
<g clip-path="url(#clip0_151_768)">
<path d="M17.5 0.832031H2.5C1.83696 0.832031 1.20107 1.09542 0.732233 1.56426C0.263392 2.03311 0 2.66899 0 3.33203L0 19.1654H20V3.33203C20 2.66899 19.7366 2.03311 19.2678 1.56426C18.7989 1.09542 18.163 0.832031 17.5 0.832031ZM2.5 2.4987H17.5C17.721 2.4987 17.933 2.5865 18.0893 2.74278C18.2455 2.89906 18.3333 3.11102 18.3333 3.33203V3.88786L11.7683 10.4537C11.2987 10.9215 10.6628 11.1841 10 11.1841C9.33715 11.1841 8.70131 10.9215 8.23167 10.4537L1.66667 3.88786V3.33203C1.66667 3.11102 1.75446 2.89906 1.91074 2.74278C2.06702 2.5865 2.27899 2.4987 2.5 2.4987ZM1.66667 17.4987V6.2487L7.05333 11.632C7.83552 12.4122 8.89521 12.8504 10 12.8504C11.1048 12.8504 12.1645 12.4122 12.9467 11.632L18.3333 6.2487V17.4987H1.66667Z" fill="white"/>
</g>
<defs>
<clipPath id="clip0_151_768">
<rect width="20" height="20" fill="white"/>
</clipPath>
</defs>
</svg>
